<?xml version="1.0" encoding="utf-8"?>
<!-- Generator: Adobe Illustrator 28.2.0, SVG Export Plug-In . SVG Version: 6.00 Build 0)  -->
<svg version="1.1" id="Capa_1" xmlns="http://www.w3.org/2000/svg" xmlns:xlink="http://www.w3.org/1999/xlink" x="0px" y="0px"
	 viewBox="0 0 2500 2500" style="enable-background:new 0 0 2500 2500;" xml:space="preserve">
<style type="text/css">
	.st0{fill:#1B73BA;}
	.st1{fill:#1C88C7;}
	.st2{fill:#FFFFFF;}
</style>
<path class="st0" d="M598.5,1789.4L467.7,190l1562.9,3.2l-138.4,1596.2L1255,1973.9L598.5,1789.4z"/>
<path class="st1" d="M1255,1819.4V342.3l643.6,2.1L1783.9,1666L1255,1819.4z"/>
<path class="st2" d="M1738.8,531.1H748.7l26.8,193.1h469.8L783,922.7l26.8,186.6H1491l-24.7,260.7l-230.6,45.1l-209.2-53.6
	l-16.1-148h-192l25.7,307.9l411.9,114.8l394.8-125.5l50.4-601.8H1284l454.8-188.8L1738.8,531.1z"/>
<g>
	<path class="st2" d="M952.7,2217.9c0-65.6,50.2-113.1,117.8-113.1c35.8,0,66.6,12.9,87,36.7l-26.4,24.8
		c-16-17.3-35.8-25.8-58.7-25.8c-45.5,0-78.5,32-78.5,77.3c0,45.2,33,77.3,78.5,77.3c22.9,0,42.7-8.5,58.7-26.1l26.4,25.1
		c-20.4,23.9-51.2,36.7-87.3,36.7C1002.9,2331,952.7,2283.6,952.7,2217.9z"/>
	<path class="st2" d="M1176.9,2304.6l14.1-31.7c17.6,14.1,45.5,24.2,72.5,24.2c34.2,0,48.7-12.2,48.7-28.6
		c0-47.4-130.6-16.3-130.6-98c0-35.5,28.3-65.6,88.6-65.6c26.4,0,54,6.9,73.2,19.5l-12.9,31.7c-19.8-11.6-41.5-17.3-60.6-17.3
		c-33.9,0-47.7,13.2-47.7,29.8c0,46.8,130.3,16.3,130.3,97c0,35.2-28.6,65.3-88.9,65.3C1229.4,2331,1195.1,2320.3,1176.9,2304.6z"/>
	<path class="st2" d="M1374.5,2304.6l14.1-31.7c17.6,14.1,45.5,24.2,72.5,24.2c34.2,0,48.7-12.2,48.7-28.6
		c0-47.4-130.6-16.3-130.6-98c0-35.5,28.3-65.6,88.6-65.6c26.4,0,54,6.9,73.2,19.5l-12.9,31.7c-19.8-11.6-41.5-17.3-60.6-17.3
		c-33.9,0-47.7,13.2-47.7,29.8c0,46.8,130.3,16.3,130.3,97c0,35.2-28.6,65.3-88.9,65.3C1426.9,2331,1392.7,2320.3,1374.5,2304.6z"/>
</g>
</svg>
