<?xml version="1.0" encoding="utf-8"?>
<!-- Generator: Adobe Illustrator 28.2.0, SVG Export Plug-In . SVG Version: 6.00 Build 0)  -->
<svg version="1.1" id="Capa_1" xmlns="http://www.w3.org/2000/svg" xmlns:xlink="http://www.w3.org/1999/xlink" x="0px" y="0px"
	 viewBox="0 0 2500 2500" style="enable-background:new 0 0 2500 2500;" xml:space="preserve">
<style type="text/css">
	.st0{fill:#FFFFFF;}
</style>
<path class="st0" d="M51.1,1446.9v-270.4h337.6v-15.8H51.1V914h359v-15.8H35.3v564.5h377.9v-15.8H51.1z M717.6,1056.3l-140,184.2
	l-136.8-184.2h-20.6l147.9,196.1l-162.1,210.3h19l152.6-198.5L731,1462.8h19.8l-162.9-210.3l148.7-196.1H717.6L717.6,1056.3
	L717.6,1056.3z M798.3,1601.9v-253h1.6c9.5,36.9,28.2,66.6,56.1,88.9c27.9,22.4,63.5,33.6,106.7,33.6c27.9,0,52.7-5.7,74.3-17
	s39.7-26.8,54.2-46.3c14.5-19.5,25.6-42.2,33.2-68c7.6-25.8,11.5-53,11.5-81.4c0-30.6-4-58.8-11.9-84.6
	c-7.9-25.8-19.4-48.2-34.4-67.2s-33.2-33.7-54.6-44.3c-21.3-10.5-45.5-15.8-72.3-15.8c-20.6,0-39.7,3-57.3,9.1
	c-17.7,6.1-33.3,14.6-47,25.7c-13.8,11.2-25.8,24.3-35.6,39.1c-10,15-17.7,31.5-22.9,49.4h-1.6v-113.9h-15.8v545.6L798.3,1601.9
	L798.3,1601.9L798.3,1601.9z M962.7,1456.4c-49.5,0-89.3-17-119.4-51c-30-34-45.1-82.9-45.1-146.7c0-26.4,3.7-51.4,11.1-75.1
	s18-44.5,32-62.5c14-17.9,31.2-32.2,51.8-42.7c20.6-10.5,43.8-15.8,69.6-15.8s49.4,5.3,69.2,15.8c19.8,10.5,36.1,24.9,49,43.1
	s22.7,39,29.3,62.5c6.6,23.5,9.9,48.4,9.9,74.7c0,23.7-3,47.3-9.1,70.8c-6.1,23.5-15.4,44.5-28.1,63.3c-12.7,18.7-28.8,34-48.6,45.9
	C1014.5,1450.5,990.7,1456.4,962.7,1456.4L962.7,1456.4L962.7,1456.4z M1222.8,1462.8v-230.1c0-22.1,3.2-43.8,9.5-64.8
	c6.3-21.1,16.1-39.7,29.2-55.7c13.2-16.1,29.9-28.7,50.2-38c20.3-9.2,44.4-13.1,72.3-11.5v-15.8c-24.2-0.5-45.5,2.1-63.7,7.9
	c-18.2,5.8-33.9,13.7-47.1,23.7s-23.7,21.7-31.6,35.2c-7.9,13.4-13.8,27.9-17.4,43.1h-1.6v-100.4H1207v406.4L1222.8,1462.8
	L1222.8,1462.8z M1403.9,1262.7h340c1.1-27.9-1.7-54.8-8.3-80.7c-6.6-25.8-17.1-48.8-31.6-68.8c-14.5-20-33.2-36.1-56.1-48.2
	s-50.2-18.2-81.8-18.2c-22.7,0-44.8,4.8-66.4,14.2s-40.6,23.3-56.9,41.5c-16.3,18.2-29.5,40.5-39.5,66.8c-10,26.3-15,56.4-15,90.1
	c0,30,3.4,58.1,10.3,84.2c6.8,26.1,17.4,48.8,31.6,68c14.2,19.2,32.6,34.1,54.9,44.7c22.4,10.5,49.4,15.6,81.1,15
	c46.4,0,85.4-13.1,117-39.1c31.6-26.1,50.3-62.9,56.1-110.3h-15.8c-6.8,44.8-24.4,78.4-52.6,100.8c-28.2,22.4-63.7,33.6-106.3,33.6
	c-29,0-53.5-5-73.5-15s-36.4-23.7-49-41.1s-22-37.8-28.1-61.3C1407.7,1315.5,1404.4,1290.1,1403.9,1262.7L1403.9,1262.7
	L1403.9,1262.7z M1728.1,1246.9h-324.2c1.6-28.5,6.8-54,15.8-76.7c9-22.7,20.7-42,35.2-58.1c14.5-16.1,31.4-28.3,50.6-36.8
	c19.2-8.4,39.9-12.7,62.1-12.7c26.4,0,49.5,4.9,69.6,14.6c20,9.8,36.8,23.1,50.2,39.9c13.4,16.9,23.6,36.5,30.4,58.9
	S1728.1,1222.1,1728.1,1246.9L1728.1,1246.9L1728.1,1246.9z M2072,1176.5h15.8c0-45.3-13.2-78.3-39.5-98.8
	c-26.4-20.6-62.2-30.8-107.5-30.8c-25.3,0-46.7,3.2-64.1,9.5c-17.4,6.3-31.6,14.5-42.7,24.5c-11.1,10-19,21.1-23.7,33.2
	c-4.8,12.1-7.1,23.7-7.1,34.8c0,22.1,3.9,39.8,11.9,53c7.9,13.2,20.3,23.5,37.2,30.8c11.6,5.3,24.8,10,39.5,14.2
	c14.8,4.2,31.9,8.7,51.4,13.4c17.4,4.2,34.5,8.4,51.4,12.7c16.9,4.2,31.8,9.9,44.7,17c12.9,7.1,23.5,16.2,31.6,27.3
	c8.2,11.1,12.2,25.6,12.2,43.5s-4.1,32.2-12.2,44.3c-8.1,12.1-18.8,22.2-31.2,29.7c-12.7,7.6-26.8,13.2-42.3,16.6
	c-15.6,3.4-30.7,5.1-45.5,5.1c-48,0-84.7-10.7-110.3-32s-38.3-54.9-38.3-100.8h-15.8c0,51.1,13.8,88.6,41.5,112.3
	c27.7,23.7,68.7,35.6,122.9,35.6c17.4,0,34.9-2,52.6-5.9c17.7-3.9,33.5-10.4,47.4-19.4c13.9-8.8,25.5-20.7,34-34.8
	c8.7-14.2,13.1-31.6,13.1-52.2s-3.8-35.3-11.5-47.4s-17.7-22.1-30.1-30c-12.4-7.9-26.3-14.1-41.9-18.6c-15.6-4.5-31.3-8.9-47.1-13.1
	c-19.3-5.1-38.7-10.1-58.1-15c-16.6-4.2-32-9.2-46.2-15c-13.7-5.8-24.6-14.1-32.8-24.9c-8.2-10.8-12.2-26.2-12.2-46.3
	c0-3.7,1.1-10.3,3.2-19.8s7.1-19.1,15-28.9c7.9-9.8,20-18.4,36.4-26.1s38.7-11.5,67.2-11.5c19.5,0,37.3,2.1,53.4,6.3
	s29.9,10.9,41.5,20.2c11.6,9.2,20.6,20.9,26.9,35.2C2068.9,1138.6,2072,1156,2072,1176.5L2072,1176.5L2072,1176.5z M2438.1,1176.5
	h15.8c0-45.3-13.2-78.3-39.5-98.8c-26.4-20.6-62.2-30.8-107.5-30.8c-25.3,0-46.6,3.2-64,9.5c-17.4,6.3-31.6,14.5-42.7,24.5
	c-11.1,10-19,21.1-23.7,33.2c-4.8,12.1-7.1,23.7-7.1,34.8c0,22.1,3.9,39.8,11.9,53c7.9,13.2,20.3,23.5,37.2,30.8
	c11.6,5.3,24.8,10,39.5,14.2c14.8,4.2,31.9,8.7,51.4,13.4c17.4,4.2,34.5,8.4,51.4,12.7c16.9,4.2,31.8,9.9,44.7,17
	c12.9,7.1,23.5,16.2,31.6,27.3c8.2,11.1,12.3,25.6,12.3,43.5s-4.1,32.2-12.3,44.3c-8.1,12.1-18.8,22.2-31.2,29.7
	c-12.7,7.6-26.8,13.2-42.3,16.6c-15.6,3.4-30.7,5.1-45.5,5.1c-48,0-84.7-10.7-110.3-32s-38.4-54.9-38.4-100.8h-15.8
	c0,51.1,13.8,88.6,41.5,112.3c27.7,23.7,68.6,35.6,122.9,35.6c17.4,0,34.9-2,52.6-5.9c17.6-3.9,33.5-10.4,47.4-19.4
	c13.9-8.8,25.5-20.7,34-34.8c8.7-14.2,13.1-31.6,13.1-52.2s-3.8-35.3-11.5-47.4c-7.6-12.1-17.6-22.1-30-30
	c-12.4-7.9-26.4-14.1-41.9-18.6c-15.6-4.5-31.3-8.9-47.1-13.1c-19.4-5.1-38.7-10.1-58.1-15c-16.6-4.2-32-9.2-46.3-15
	c-13.7-5.8-24.6-14.1-32.8-24.9c-8.2-10.8-12.3-26.2-12.3-46.3c0-3.7,1.1-10.3,3.2-19.8c2.1-9.5,7.1-19.1,15-28.9
	c7.9-9.8,20-18.4,36.4-26.1s38.7-11.5,67.2-11.5c19.5,0,37.3,2.1,53.4,6.3s29.9,10.9,41.5,20.2c11.6,9.2,20.6,20.9,26.9,35.2
	C2434.9,1138.6,2438.1,1156,2438.1,1176.5L2438.1,1176.5L2438.1,1176.5z"/>
</svg>
