<?xml version="1.0" encoding="UTF-8"?>
<svg id="Capa_1" data-name="Capa 1" xmlns="http://www.w3.org/2000/svg" viewBox="0 0 2500 2495">
  <defs>
    <style>
      .cls-1, .cls-2 {
        stroke-width: 0px;
      }

      .cls-2 {
        fill: #fff;
      }
    </style>
  </defs>
  <path class="cls-1" d="M2.5,178.76C2.5,80.06,85.07,0,186.87,0h2126.26C2414.93,0,2497.5,80.06,2497.5,178.76v2137.58c0,98.7-82.57,178.66-184.37,178.66H186.87c-101.8,0-184.37-79.96-184.37-178.66V178.76Z"/>
  <g>
    <path class="cls-2" d="M1547.58,2357.14c0-40.56,1.39-173.15,1.39-337.89,0-114.86-38.35-189.8-81.38-228.01,267.17-30.48,547.85-134.61,547.85-607.51,0-134.43-46.55-244.26-123.48-330.49,12.46-31.02,53.54-156.24-11.76-325.84,0,0-100.61-33.09-329.62,126.21-95.89-27.29-198.61-40.96-300.57-41.43-101.97.46-204.61,14.14-300.31,41.43-229.28-159.3-330.04-126.21-330.04-126.21-65.15,169.6-24.08,294.82-11.62,325.84-76.76,86.22-123.63,196.07-123.63,330.49,0,471.78,280.16,577.36,546.65,608.5-34.31,30.75-65.41,85.06-76.17,164.64-68.47,31.45-242.14,85.88-349.15-102.36,0,0-63.44-118.2-183.93-126.89,0,0-117.06-1.56-8.21,74.86,0,0,78.64,37.83,133.22,180.15,0,0,70.43,219.75,404.24,145.27.51,102.88,1.63,199.88,1.63,229.24,0,26.13-14.22,55.86-50.91,60.63,110.26,34.72,227.44,53.42,348.91,53.42s238.22-18.64,348.3-53.23c-37.35-4.31-51.4-34.39-51.4-60.82ZM499.56,1770.72h0c-2.63,6.11-12.03,7.95-20.56,3.76-8.7-4.02-13.6-12.36-10.77-18.5,2.59-6.3,11.98-8.05,20.66-3.82,8.72,4.01,13.69,12.43,10.67,18.57ZM558.58,1824.76h0s0,0,0,0c-5.72,5.44-16.91,2.91-24.5-5.69-7.85-8.58-9.32-20.06-3.51-25.59,5.9-5.44,16.75-2.9,24.62,5.7,7.84,8.68,9.37,20.07,3.4,25.58,0,0,0,0,0,0ZM599.06,1893.91h0c-7.36,5.23-19.38.32-26.81-10.63-7.35-10.94-7.35-24.07.16-29.34,7.45-5.26,19.29-.53,26.82,10.33,7.34,11.13,7.34,24.27-.18,29.64ZM667.54,1973.98h0c-6.58,7.44-20.58,5.45-30.84-4.71-10.48-9.93-13.41-24.02-6.81-31.46,6.65-7.45,20.74-5.36,31.07,4.71,10.42,9.91,13.6,24.1,6.59,31.46ZM756.04,2001.02h0c-2.89,9.64-16.38,14.02-29.97,9.93-13.57-4.22-22.45-15.52-19.71-25.26,2.82-9.7,16.37-14.27,30.06-9.89,13.55,4.2,22.45,15.41,19.63,25.22ZM856.75,2012.48c.34,10.16-11.19,18.58-25.45,18.76-14.35.32-25.95-7.9-26.1-17.88,0-10.26,11.26-18.6,25.6-18.84,14.27-.29,25.95,7.87,25.95,17.96h0ZM933.32,2031.38c-13.93,2.61-26.82-3.51-28.6-13.33-1.73-10.16,8.38-20.33,22.27-22.96,14.19-2.53,26.88,3.43,28.69,13.5h0c1.71,9.91-8.21,20.09-22.37,22.79Z"/>
    <path class="cls-1" d="M1250,16.76C587.45,16.76,50.18,568.01,50.18,1248.02c0,544.01,343.79,1005.54,820.52,1168.35,11.78,2.24,22.1,2.56,31.07,1.39,36.69-4.77,50.91-34.5,50.91-60.63,0-29.36-1.12-126.36-1.63-229.24-333.8,74.48-404.24-145.27-404.24-145.27-54.58-142.32-133.22-180.15-133.22-180.15-108.86-76.42,8.21-74.86,8.21-74.86,120.49,8.69,183.93,126.89,183.93,126.89,107.01,188.24,280.68,133.81,349.15,102.36,10.77-79.59,41.87-133.9,76.17-164.64-266.49-31.14-546.65-136.72-546.65-608.5,0-134.42,46.87-244.26,123.63-330.49-12.46-31.02-53.52-156.24,11.62-325.84,0,0,100.75-33.09,330.04,126.21,95.7-27.29,198.34-40.96,300.31-41.43,101.97.46,204.69,14.14,300.57,41.43,229.01-159.3,329.62-126.21,329.62-126.21,65.31,169.6,24.22,294.82,11.76,325.84,76.93,86.22,123.48,196.06,123.48,330.49,0,472.9-280.68,577.04-547.85,607.51,43.03,38.21,81.38,113.15,81.38,228.01,0,164.74-1.39,297.34-1.39,337.89,0,26.43,14.05,56.51,51.4,60.82,8.96,1.03,19.25.59,31.02-1.75,476.47-162.99,819.82-624.36,819.82-1168.18,0-680.02-537.19-1231.26-1199.81-1231.26Z"/>
    <polygon class="cls-1" points="558.58 1824.76 558.57 1824.76 558.57 1824.77 558.58 1824.76"/>
    <path class="cls-1" d="M488.88,1752.15c-8.69-4.23-18.08-2.47-20.66,3.82-2.82,6.14,2.07,14.48,10.77,18.5,8.53,4.19,17.93,2.36,20.56-3.76h0c3.02-6.14-1.95-14.56-10.67-18.57Z"/>
    <path class="cls-1" d="M955.69,2008.59c-1.81-10.07-14.5-16.03-28.69-13.5-13.9,2.64-24,12.8-22.27,22.96,1.78,9.82,14.67,15.93,28.6,13.33,14.16-2.7,24.08-12.88,22.37-22.79h0Z"/>
    <path class="cls-1" d="M736.41,1975.8c-13.69-4.38-27.24.18-30.06,9.89-2.74,9.74,6.14,21.04,19.71,25.26,13.59,4.09,27.08-.29,29.97-9.93h0c2.82-9.81-6.08-21.02-19.63-25.22Z"/>
    <path class="cls-1" d="M830.8,1994.52c-14.34.24-25.6,8.58-25.6,18.84.15,9.98,11.75,18.2,26.1,17.88,14.27-.18,25.79-8.6,25.45-18.76h0c0-10.09-11.69-18.25-25.95-17.96Z"/>
    <path class="cls-1" d="M660.96,1942.52c-10.33-10.07-24.42-12.17-31.07-4.71-6.6,7.45-3.67,21.53,6.81,31.46,10.26,10.16,24.26,12.15,30.84,4.71h0c7.01-7.36,3.83-21.55-6.59-31.46Z"/>
    <path class="cls-1" d="M555.18,1799.18c-7.87-8.59-18.72-11.13-24.62-5.7-5.81,5.53-4.34,17.01,3.51,25.59,7.59,8.6,18.78,11.13,24.5,5.69,5.97-5.51,4.45-16.9-3.4-25.58Z"/>
    <path class="cls-1" d="M572.42,1853.94c-7.51,5.26-7.51,18.4-.16,29.34,7.42,10.95,19.45,15.87,26.81,10.62h0c7.52-5.36,7.52-18.49.18-29.63-7.53-10.86-19.37-15.6-26.82-10.33Z"/>
  </g>
</svg>