<?xml version="1.0" encoding="utf-8"?>
<!-- Generator: Adobe Illustrator 28.2.0, SVG Export Plug-In . SVG Version: 6.00 Build 0)  -->
<svg version="1.1" id="Capa_1" xmlns="http://www.w3.org/2000/svg" xmlns:xlink="http://www.w3.org/1999/xlink" x="0px" y="0px"
	 viewBox="0 0 2500 2500" style="enable-background:new 0 0 2500 2500;" xml:space="preserve">
<style type="text/css">
	.st0{fill:#FFFFFF;}
	.st1{fill:#E34F26;}
	.st2{fill:#EF652A;}
</style>
<g>
	<path class="st0" d="M1006.1,2099.1v225h-32.1v-100.3H844.7V2324h-32.1v-225h32.1v96.7h129.2v-96.7H1006.1z"/>
	<path class="st0" d="M1118.2,2127h-77.1v-28h186.1v28H1150v197h-31.8V2127z"/>
	<path class="st0" d="M1470.8,2324l-0.3-163.9l-81.3,136.6h-14.8l-81.3-135.6V2324h-30.9v-225h26.4l93.8,158.1l92.6-158.1h26.4
		l0.3,225H1470.8z"/>
	<path class="st0" d="M1569.1,2099.1h32.1v197h121.8v28h-153.9V2099.1z"/>
</g>
<g>
	<path class="st1" d="M602.6,1781.8L472.1,187.4l1558,3.2l-137.9,1591.2L1257,1965.7L602.6,1781.8z"/>
	<path class="st2" d="M1257,1811.7V339.2l641.6,2.1l-114.4,1317.4L1257,1811.7z"/>
	<path class="st0" d="M1722.2,707.1l18.2-194.6h-987l54.5,596.7h681.2l-26.7,254.5l-218.1,58.8l-221.4-64.2l-11.8-151.8H815.4
		l26.7,310.1l402.1,112.3l405.3-112.3l54.5-605.2H988.6l-20.3-204.2H1722.2z"/>
</g>
</svg>
