<?xml version="1.0" encoding="UTF-8"?>
<svg id="Capa_1" data-name="Capa 1" xmlns="http://www.w3.org/2000/svg" viewBox="0 0 1781.49 2131.56">
  <defs>
    <style>
      .cls-1, .cls-2, .cls-3 {
        stroke-width: 0px;
      }

      .cls-2 {
        fill: #fff;
      }

      .cls-3 {
        fill: #f0db4f;
      }
    </style>
  </defs>
  <path class="cls-3" d="M0,0h1781.49v1781.49H0V0Z"/>
  <path class="cls-1" d="M1635.68,1356.6c-13.04-81.28-66.04-149.53-223.02-213.2-54.53-25.06-115.32-43.01-133.44-84.33-6.44-24.05-7.28-37.59-3.22-52.16,11.68-47.25,68.08-61.98,112.78-48.43,28.79,9.65,56.05,31.84,72.48,67.23,76.88-49.79,76.71-49.45,130.39-83.65-19.64-30.48-30.14-44.54-43.01-57.58-46.23-51.65-109.23-78.24-209.98-76.2-17.44,2.2-35.05,4.57-52.5,6.77-50.29,12.7-98.22,39.12-126.33,74.51-84.33,95.68-60.29,263.16,42.34,332.08,101.1,75.87,249.61,93.14,268.58,164.09,18.46,86.87-63.84,114.98-145.63,104.99-60.29-12.53-93.81-43.18-130.06-98.9q-66.72,38.61-135.3,78.07c16.26,35.56,33.36,51.65,60.62,82.47,129.04,130.9,451.97,124.47,509.89-73.66,2.37-6.78,17.95-52.16,5.42-122.1ZM968.47,818.77h-166.63c0,143.94-.68,286.87-.68,430.81,0,91.61,4.74,175.61-10.16,201.35-24.39,50.63-87.55,44.37-116.34,34.54-29.3-14.39-44.2-34.88-61.47-63.84-4.74-8.3-8.3-14.73-9.48-15.24-45.21,27.6-90.26,55.37-135.47,82.98,22.52,46.23,55.71,86.36,98.22,112.44,63.5,38.1,148.85,49.79,238.1,29.3,58.08-16.93,108.21-51.99,134.46-105.33,37.93-69.94,29.8-154.61,29.47-248.26.85-152.75,0-305.49,0-458.75h0Z"/>
  <g>
    <path class="cls-2" d="M81.15,2105.73l18.93-22.76c9.72,13.3,21.49,20.46,35.55,20.46,18.42,0,27.88-11,27.88-33v-92.59h-63.69v-27.88h96.94v118.68c0,42.21-20.97,62.92-60.36,62.92-22.51,0-42.97-9.21-55.25-25.83Z"/>
    <path class="cls-2" d="M355.61,2087.57h-89.52l-17.65,41.44h-34.27l80.57-179.05h32.74l80.83,179.05h-34.79l-17.9-41.44ZM344.61,2061.48l-33.76-78.27-33.51,78.27h67.27Z"/>
    <path class="cls-2" d="M585.31,1949.96l-78.01,179.05h-32.74l-78.27-179.05h36.07l59.6,138.12,60.11-138.12h33.25Z"/>
    <path class="cls-2" d="M714.74,2087.57h-89.52l-17.65,41.44h-34.27l80.57-179.05h32.74l80.83,179.05h-34.79l-17.91-41.44ZM703.74,2061.48l-33.76-78.27-33.51,78.27h67.27Z"/>
    <path class="cls-2" d="M775.1,2110.08l11.51-25.83c14.32,11.51,37.09,19.7,59.09,19.7,27.88,0,39.65-9.98,39.65-23.28,0-38.62-106.41-13.3-106.41-79.8,0-28.9,23.02-53.46,72.13-53.46,21.49,0,44,5.63,59.6,15.86l-10.49,25.83c-16.11-9.46-33.76-14.07-49.37-14.07-27.62,0-38.88,10.74-38.88,24.3,0,38.11,106.15,13.3,106.15,79.04,0,28.65-23.28,53.2-72.39,53.2-27.88,0-55.76-8.7-70.6-21.49Z"/>
    <path class="cls-2" d="M938.29,2039.48c0-53.46,40.92-92.08,95.92-92.08,29.16,0,54.23,10.49,70.85,29.93l-21.49,20.21c-13.04-14.07-29.16-20.97-47.83-20.97-37.09,0-63.95,26.09-63.95,62.92s26.86,62.92,63.95,62.92c18.67,0,34.79-6.91,47.83-21.23l21.49,20.46c-16.63,19.44-41.69,29.93-71.11,29.93-54.74,0-95.66-38.62-95.66-92.08Z"/>
    <path class="cls-2" d="M1254.19,2129l-36.58-52.44c-2.3.26-4.6.26-6.91.26h-40.41v52.18h-33.25v-179.05h73.67c47.06,0,76.22,24.04,76.22,63.69,0,27.11-13.81,47.06-38.11,56.53l41.18,58.83h-35.81ZM1209.17,1978.09h-38.88v71.36h38.88c29.16,0,44.25-13.3,44.25-35.81s-15.09-35.55-44.25-35.55Z"/>
    <path class="cls-2" d="M1324.01,1949.96h33.25v179.05h-33.25v-179.05Z"/>
    <path class="cls-2" d="M1555.5,2013.65c0,39.39-29.16,63.69-76.22,63.69h-40.41v51.67h-33.25v-179.05h73.67c47.06,0,76.22,24.04,76.22,63.69ZM1521.99,2013.65c0-22.51-15.09-35.55-44.25-35.55h-38.88v71.11h38.88c29.16,0,44.25-13.04,44.25-35.55Z"/>
    <path class="cls-2" d="M1619.96,1978.09h-59.34v-28.14h151.93v28.14h-59.34v150.91h-33.25v-150.91Z"/>
  </g>
</svg>