<?xml version="1.0" encoding="UTF-8"?>
<svg id="Capa_1" data-name="Capa 1" xmlns="http://www.w3.org/2000/svg" viewBox="0 0 2500 2495">
  <defs>
    <style>
      .cls-1 {
        fill: #fff;
      }

      .cls-1, .cls-2 {
        stroke-width: 0px;
      }

      .cls-2 {
        fill: #0a66c2;
      }
    </style>
  </defs>
  <path class="cls-1" d="M188.07,308.72h2070.95v1981.87H188.07V308.72Z"/>
  <path class="cls-2" d="M2.5,178.76C2.5,80.06,85.07,0,186.87,0h2126.26C2414.93,0,2497.5,80.06,2497.5,178.76v2137.58c0,98.7-82.57,178.66-184.37,178.66H186.87c-101.8,0-184.37-79.96-184.37-178.66V178.76Z"/>
  <path class="cls-1" d="M760.72,2087.98V964.73h-373.35v1123.25h373.35ZM574.15,811.43c130.16,0,211.22-86.27,211.22-194.09-2.4-110.22-81.06-194.09-208.72-194.09s-211.22,83.87-211.22,194.09,80.96,194.09,206.31,194.09h2.4ZM967.33,2087.98h373.35v-627.26c0-33.57,2.4-67.13,12.32-91.08,26.95-67.13,88.38-136.57,191.58-136.57,135.07,0,189.08,103.01,189.08,254.01v600.8h373.35v-643.99c0-344.99-184.17-505.51-429.76-505.51-201.4,0-289.78,112.53-338.98,189.18h2.51v-162.83h-373.45c4.91,105.41,0,1123.25,0,1123.25Z"/>
</svg>