<?xml version="1.0" encoding="utf-8"?>
<!-- Generator: Adobe Illustrator 28.2.0, SVG Export Plug-In . SVG Version: 6.00 Build 0)  -->
<svg version="1.1" id="Capa_1" xmlns="http://www.w3.org/2000/svg" xmlns:xlink="http://www.w3.org/1999/xlink" x="0px" y="0px"
	 viewBox="0 0 2500 2500" style="enable-background:new 0 0 2500 2500;" xml:space="preserve">
<style type="text/css">
	.st0{fill:#599636;}
	.st1{fill:#6CAC48;}
	.st2{fill:#C2BFBF;}
	.st3{fill:#47474A;}
</style>
<path class="st0" d="M1259.5,190.4l47.6,89.4c10.7,16.5,22.3,31.1,35.9,44.7c40,39.5,77.3,81.7,111.6,126.3
	c80.6,105.8,135,223.4,173.8,350.6c23.3,77.6,35.9,157.4,36.9,237.9c3.9,240.9-78.7,447.7-245.1,619.6c-27,27.2-56.3,52.3-87.5,74.7
	c-16.5,0-24.3-12.6-31.1-24.3c-12.4-21.6-20.6-45.3-24.3-69.9c-5.9-29.2-9.7-58.3-7.8-88.3v-13.6
	C1268.2,1534.4,1253.7,197.3,1259.5,190.4L1259.5,190.4z"/>
<path class="st1" d="M1259.5,187.5c-1.9-3.9-3.9-1-5.9,1c1,19.5-5.9,36.9-16.5,53.5c-11.7,16.5-27.2,29.2-42.8,42.8
	c-86.3,74.7-154.3,165.1-208.7,266.1C913.2,686.8,875.9,832.5,865.4,986c-4.8,55.3,17.5,250.5,35,306.8
	c47.6,149.6,133,274.9,243.8,383.6c27.2,26.2,56.3,50.5,86.3,73.9c8.8,0,9.7-7.8,11.7-13.6c3.9-12.4,6.8-25,8.8-37.8l19.5-145.6
	L1259.5,187.5z"/>
<path class="st2" d="M1307.1,1792.6c1.9-22.3,12.6-40.7,24.3-59.2c-11.7-4.8-20.4-14.5-27.2-25.2c-5.9-10.2-10.7-20.9-14.5-32.1
	c-13.6-40.7-16.5-83.6-20.4-125.2v-25.2c-4.8,3.9-5.9,36.9-5.9,41.8c-2.8,44.1-8.7,87.8-17.5,131.1c-2.9,17.5-4.8,35-15.6,50.5
	c0,1.9,0,3.9,1,6.8c17.5,51.5,22.3,103.9,25.2,157.4v19.5c0,23.3-1,18.4,18.4,26.2c7.8,2.9,16.5,3.9,24.3,9.7c5.9,0,6.8-4.8,6.8-8.8
	l-2.9-32.1v-89.4C1302.2,1822.8,1305.1,1807.3,1307.1,1792.6L1307.1,1792.6z"/>
<path class="st3" d="M479.3,2226.4v43.2c0,1.7,0,3.5,0.3,5.1c0.5,5.1,3.7,8.3,8.3,9.7c4.3,1.1,8.7,1.9,13.1,2.6
	c2.6,0.3,3.4,1.4,3.7,4.2c0.3,9.7-0.5,10.8-9.9,10.2c-21.9-1.1-43.8-1.4-65.7,0h-2c-6.8,0.3-7.4-0.3-7.4-7.1c0-1.1,0.3-2.6,0.3-3.7
	c0-2,1.4-3.2,3.4-3.2c4.6-0.5,8.8-1.7,13.1-2.6c5.9-1.4,9.4-5.1,9.9-11.1c0.8-6.5,0.8-13.4,0.8-19.9l0.3-76.2
	c0.2-4.5-2.2-8.7-6.2-10.8c-5.1-2.9-10.6-5.1-16.2-6.8c-1.7-0.5-3.4-0.8-4.8-1.7c-4.2-2-4.3-5.7-0.3-8c1.4-0.8,3.2-1.4,4.8-1.7
	c17.2-2.6,34.2-6.8,50.5-12.8c3.4-1.1,4.3-0.8,4.6,2.6c0.3,2,0,4.6-0.3,6.5c-0.5,3.7-0.5,7.4-0.5,10.8c0,1.4,0.3,2.9,1.7,3.7
	s2.9,0,4.2-0.8c5.9-4.6,11.9-8.8,18.5-12.5c9.4-5.1,19.3-9.7,30.1-11.1c13.1-1.7,24.4,1.7,34.4,10.2c4.1,3.7,7.8,7.9,10.8,12.5
	c2.9,4.2,3.2,4.3,6.8,1.4c10.8-8,22.2-15,34.4-20.2c12.8-5.4,25.8-6.2,38.9-1.7c13.4,4.8,22.5,14.2,27.9,27
	c4.6,10.2,6.5,20.8,6.5,31.9v76.2c0,5.1,2,8.3,7.1,10.8c5.4,2,11.3,3.2,17.1,4.3c3.7,0.8,3.7,0.8,3.7,4.6c-0.5,9.4-1.4,9.9-10.5,9.4
	c-22.8-1.3-45.6-1.3-68.4,0c-4.6,0.3-4.6,0.3-4.8-4.3v-1.4c-0.3-7.7-0.3-7.7,7.1-9.4l7.4-2c5.1-1.2,8.8-5.8,8.8-11.1l0.8-21.3
	l-0.5-55.6c-0.2-5-1.2-9.9-3.2-14.5c-7.1-17.4-22.8-23.6-37.8-21.9c-11.3,1.1-21.3,5.7-30.7,12.3c-2,1.4-3.4,3.2-3.2,5.9
	c2.6,18.2,0.8,36.4,1.1,54.5v39.5c0,7.1,2.9,10.5,9.7,12.3l13.1,2.9c2,0.3,3.2,1.1,3.2,3.4v2c-0.3,8-0.8,8.3-8.8,8.3
	c-22.8-1.1-45.4-0.8-67.9,0c-7.7,0.3-8.3-0.5-8-8.3c0.3-4.6,0.8-4.8,5.1-5.7l9.4-1.7c8.3-1.7,11.3-4.8,11.9-13.7l0.8-19.1l-0.5-57.1
	c-0.5-7.1-2-13.9-5.9-20.4c-5.7-10.5-14.6-15.9-26.8-16.4c-12.3-0.8-23,3.7-33.3,9.4c-7.1,4.2-10.2,9.1-9.7,17.4v41.5L479.3,2226.4z
	 M1014.7,2228.1v40c0,2.9,0.2,5.7,0.5,8.5c0.2,3.9,3.1,7.1,6.8,8c4.9,1.4,9.9,2.2,15,2.6c2.9,0.3,3.4,1.4,3.7,3.7v2
	c-0.3,9.9-1.4,11.1-11.1,10.5c-21.6-1.4-43.2-1.1-64.7,0l-8.3,0.3c-1.7,0-2-0.8-2.6-2c-0.8-3.9-0.8-8,0-11.9c0.3-1.7,1.4-2,3.2-2.6
	c4.2-0.5,7.7-1.4,11.6-2c7.1-1.7,9.7-4.6,9.9-11.9l0.8-23.9v-69.9c0-5.1-2-8.3-6.5-10.5c-5.1-2.9-10.5-4.8-16.2-6.8
	c-1.7-0.5-3.4-1.1-4.8-2c-3.7-2.6-4.2-6.2-0.5-9.1c1.6-1.3,3.6-2.1,5.7-2.2c18.2-2.9,35.8-6.8,52.9-13.7c2-0.8,2.9-0.3,3.7,1.4
	c0.8,1.7,1.1,3.7,0.8,5.7l-0.8,13.4c0,1.7-0.8,4.2,0.5,4.8c1.7,1.1,2.9-1.4,4.3-2c8.4-7,17.6-13,27.6-17.6
	c8.8-4.2,17.9-6.8,28.1-6.2c19.1,1.1,32.7,10.8,41.5,27.6c4.6,8.8,6.5,18.5,7.4,28.4l0.8,20.8l0.3,62.8c0.3,4.8,2,8,6.8,9.7
	c5,1.6,10.1,2.9,15.3,3.7c4.6,0.5,4.8,1.4,5.1,5.7v1.4c-0.5,9.7-1.1,9.9-10.8,9.4c-21.2-1.1-42.4-1.1-63.6,0c-2.9,0.3-5.7,0-8.3,0.3
	c-1.7,0-2.9-0.3-3.2-2c-0.5-3.7-1.1-7.4-0.3-11.3c0.3-1.7,1.1-2.6,3.2-2.9l13.1-2c4.6-1.1,7.1-4.2,7.7-8.3l0.5-8l-0.3-59.4
	c0-6.8-0.3-13.7-1.7-20.4c-3.4-14.6-14.5-24.9-29.5-26.4c-13.1-1.4-24.9,2-35.8,9.1c-5.4,3.4-7.7,8.3-7.7,14.2v42.9
	c0-0.8,0-0.8,0.3-0.8L1014.7,2228.1z"/>
<path class="st2" d="M1846.7,2147.8c-3.2-20.7-10.8-39.2-24.2-55.4c-11.6-14.3-26.7-25.4-43.8-32.4c-17.9-7.4-37-9.7-56.3-10.2
	c-8-0.3-116.5,1.4-124.5,0c-2-0.3-3.4,0.3-4.6,2c-1.4,2-2.9,4.3-3.7,6.5c-3.4,7.7-3.4,7.1,4.8,8.3c6.8,1.1,13.4,1.7,19.9,3.7
	c5.9,2,10.2,5.4,11.6,11.9c0.5,3.2,1.1,103.1,1.1,149.7l-1.1,33.3c-0.3,2.6-0.5,5.1-1.4,7.4c-1.1,3.4-3.2,6.2-6.5,7.7
	c-3.8,1.7-7.8,2.9-11.9,3.2c-7.7,0.8-8.8,1.1-11.3,9.7l-0.8,3.2c-0.5,3.7-0.3,4.3,3.4,4.3l85,0.8l33.3-0.5l23-2.9
	c26.1-4.8,49.4-15.6,69.3-33c11.3-10,20.6-22.2,27.3-35.8c8-15.9,11.3-33.3,12.3-50.8C1849,2168.2,1848.5,2158,1846.7,2147.8
	L1846.7,2147.8z M1805.6,2188.1c-1.1,18.2-4.8,35.8-14.2,51.7c-11.9,20.7-29,35.2-52.6,40.3c-10.2,2-20.4,3.2-31.1,1.7
	c-7.7-0.8-15-1.7-22.2-4.3c-12.8-4.6-17.4-12.5-17.6-24.9l-0.3-171.3c0-10.2,4.6-12.5,11.9-12.8c11.1-0.8,22.5-0.5,33.5,0.5
	c11.8,1.1,23.4,4,34.4,8.3c8.2,3.4,15.7,8.1,22.5,13.9c15.3,13.1,25.5,29.5,31.1,48.8c4.6,15.6,5.4,31.6,4.6,47.5L1805.6,2188.1z
	 M2082.9,2216c0-1.7,0-3.2-0.3-4.8c-2.6-15.6-10.8-27.6-23.6-36.7c-8.3-5.9-17.6-9.9-27.3-12.8c-1.7-0.5-3.2-1.1-4.8-1.4
	c0.3-1.4,1.1-1.7,2-2c5.7-2.9,11.1-5.9,15.9-10.2c8.8-7.4,14.6-16.4,17.6-27.6c1.7-5.9,1.7-11.9,1.1-18.2
	c-0.9-14.8-8.6-28.4-20.7-37c-13.1-9.7-28.4-13.7-44.3-13.9c-30.7-0.5-61.7,0-92.3,0c-8.8,0-17.6,0.5-26.8-0.8
	c-1.7-0.3-4.2-0.8-5.4,1.1c-2,3.7-4.6,7.4-5.4,11.6c-0.3,2,0.3,3.2,2.6,3.4l19.6,2.9c7.7,1.1,13.1,5.4,13.7,12.3
	c0.5,4.7,0.8,9.5,0.8,14.2l-0.5,53.1l-0.3,105.1c0,6.2-0.8,12.3-2,18.5c-0.6,4.1-3.5,7.4-7.4,8.5c-5.7,1.7-11.1,3.4-17.1,3.4
	c-3.3-0.3-6.3,1.7-7.4,4.8c-1.1,2.6-2,5.4-2.6,8c-0.5,3.4,0.3,4.6,3.7,4.2c2.6-0.3,96.3,2,114,0.3c10.5-1.1,20.8-2.6,31.2-5.7
	c17.9-5.7,34.4-13.9,47.5-27.9c10.8-11.3,17.1-25,17.6-40.9C2082.9,2223.7,2082.9,2220,2082.9,2216L2082.9,2216z M1945.1,2099.5
	l0.8-22.8c0-4.3,1.7-6.2,5.9-7.1c6.8-1.4,13.7-0.8,20.4-0.5c6.8,0.5,13.4,1.4,20.2,3.4c12.5,3.7,22.2,10.8,27.9,22.8
	c2.6,5.4,4,11.3,4,17.4c0.3,8-0.3,15.6-3.4,23.3c-4.8,10.5-12.5,17.4-23.6,19.3c-11.1,2-42.6,1.1-47.5,1.1c-4.3,0-4.6-0.5-4.6-4.8
	v-26.8c-0.7-8.3-0.7-16.6-0.3-25L1945.1,2099.5z M2037.4,2252.3c-4.8,12.8-13.7,21.6-26.1,26.4c-6.8,2.6-13.7,4.2-20.8,3.7
	c-8.8-0.3-17.6,0-26.4-1.7c-11.9-2.6-17.4-13.9-18.2-22.2c-1.4-14.5-0.5-29.3-0.8-40v-37.5c0-4.6,0.5-5.9,5.4-5.9l26.8,0.3l18.2,2
	c12.8,2.9,24.4,7.7,33.5,17.6c7.4,8,11.3,17.6,12.3,28.1c0.8,9.9,0.3,19.6-3.4,29L2037.4,2252.3z"/>
<path class="st3" d="M1315.5,2166.8l7.4,1.1c8,0.3,17.4-2.6,20.2-13.7c1.5-5.3,1.5-10.9,0-16.2c-1.7,0-2.6,1.4-3.4,2
	c-4.3,3.4-9.1,5.4-14.2,5.9c-10.2,1.1-20.4,0.5-30.4-3.2l-13.9-4.8c-9.7-3.2-19.9-4.5-30.1-4c-14.5,1.1-28.1,5.9-40.9,12.8
	c-13.7,7.4-23.3,18.5-27.9,33.5c-2.6,8.8-2.9,17.9-1.7,27c2.9,20.7,13.7,35.2,33,42.9c1.1,0.3,2,0.8,3.2,1.1
	c2.6,1.4,2.9,2.9,0.5,4.8l-7.1,4.8l-17.1,10.5c-4.3,2.6-4.8,4.6-3.4,9.1c1.7,5.3,4.8,10,9.1,13.7c3.9,3.4,8.3,6,13.1,8
	c3.2,1.4,3.2,2,0.3,4.6l-16.2,11.6c-5.4,4.2-10.8,8.3-15.3,13.7c-6.4,6.8-9,16.4-6.8,25.5c2.1,9.9,7.2,18.8,14.8,25.5
	c7.4,6.9,16.4,11.7,26.1,14.2c15.9,4.6,32.4,4.8,48.6,1.7c23.3-4.3,43.7-14.6,59.6-32.1c11.1-11.6,17.6-25.3,18.2-41.6
	c1.3-19.5-11.7-37-30.7-41.5l-15.3-2.9l-46.9-4.2c-5.1-0.3-10.2-1.1-14.5-3.7c-5.4-3.4-6.8-9.9-3.4-14.2c2.6-3.2,5.7-5.1,9.7-5.4
	l9.1-0.8c18-1.8,34.8-9.5,48-21.9c7-6.5,12.1-14.9,14.5-24.2c3.4-12.3,3.4-24.9,0.5-37.4c-0.8-3.2-0.5-3.4,3.4-2.9L1315.5,2166.8z
	 M1245.8,2308.3c1.7,0.3,3.4,0,5.1,0c11.9,0.5,24.2,1.4,35.8,4.6c3.8,1.1,7.6,2.6,11.1,4.3c11.3,6.2,15.6,17.1,14.2,28.7
	c-1.7,12.8-8.8,21.9-19.9,27.9c-7.4,4.2-15.6,5.9-24.2,6.8c-3.2,0.3-5.9,0-9.1,0c-9.9,0.3-19.6-0.8-29-4.8
	c-6.5-2.6-11.9-6.2-16.7-11.3c-9.9-9.9-14.6-28.1,0.3-42.9C1222.6,2313.1,1232.8,2307.2,1245.8,2308.3L1245.8,2308.3z
	 M1278.3,2219.7c-5.9,15-19.1,19.6-32.1,17.6c-11.9-1.7-20.7-8.3-26.4-19.1c-7.4-14.5-9.4-29.5-5.1-45.1
	c3.2-11.6,10.2-20.4,22.8-22.5c15.9-2.9,31.1,2.9,39.2,18.8c4.2,7.7,5.9,17.1,5.9,30.4C1282.3,2205.2,1281.2,2212.5,1278.3,2219.7
	L1278.3,2219.7z M920.3,2200.3c-2.6-15.3-8.3-29.3-18.8-40.9c-15.6-17.4-35.5-24.9-58-25c-19.6-0.3-38.1,5.4-54.5,15.6
	c-16.2,9.7-28.1,25.2-33.3,43.5c-4.8,16.4-4.6,33.3-0.8,50c9.9,44.9,44.6,64.2,86.1,61.4c12.3-0.8,23.9-4.8,34.9-10.2
	c16.4-7.7,28.4-19.9,36.7-36c6.5-13.4,9.4-27.6,9.1-43.8L920.3,2200.3z M880,2263.4c-4.2,13.1-15.6,22.5-29.3,23.9
	c-12.5,1.7-24.2-1.4-34.6-8.8c-7.6-5.6-13.7-12.9-17.9-21.3c-11.6-23.9-13.7-48.8-7.7-74.4c1.9-8,6-15.1,11.9-20.7
	c10.5-9.7,22.8-11.9,36.4-9.1c13.1,2.9,23,9.9,31.1,20.7c8.2,10.8,11.9,23.3,14.2,36.4c1.1,6.5,1.1,13.4,1.4,17.6
	c0,13.7-1.1,24.9-5.4,35.8L880,2263.4z M1541.1,2202.6c-2-16.4-8.3-31.6-19.9-44c-15.3-16.7-35.2-23.9-57.4-24.2
	c-19.1-0.3-36.7,5.1-52.9,14.5c-18.2,10.8-30.7,26.1-35.5,46.9c-5.7,22.7-3.4,46.6,6.8,67.6c9.4,19.9,25.3,32.7,46.4,38.4
	c23.3,6.2,45.4,3.4,67.1-7.1c18.8-9.1,32.1-23.3,39.8-42.6c4.6-11.3,6.2-23.6,6.5-37.8C1542.3,2211.7,1541.6,2207.1,1541.1,2202.6
	L1541.1,2202.6z M1501.9,2259.7c-4.6,15.3-14.2,25.3-30.4,27.6c-11.9,1.7-23.3-1.1-33.5-8c-8.8-5.9-15-13.9-19.6-23.3
	c-5.1-9.9-8-20.4-9.1-31.2c-1.7-13.4-1.7-26.4,1.4-39.8c0.6-2.7,1.4-5.2,2.6-7.7c8-19.9,25.5-29,46.4-24.4
	c13.9,3.2,24.4,10.8,32.4,22.5c7.7,11.3,11.3,23.9,13.1,37.4c0.8,5.4,1.1,11.1,0.8,15.9c0,11.1-0.8,21.3-4.2,31.2L1501.9,2259.7z"/>
</svg>
