<?xml version="1.0" encoding="UTF-8"?>
<svg id="Capa_1" data-name="Capa 1" xmlns="http://www.w3.org/2000/svg" viewBox="0 0 2500 2500">
  <defs>
    <style>
      .cls-1 {
        fill: #83cd29;
      }

      .cls-1, .cls-2 {
        stroke-width: 0px;
      }

      .cls-2 {
        fill: #fff;
      }
    </style>
  </defs>
  <g>
    <path class="cls-1" d="M2283.84,1141.65c-6,0-11.83,1.24-16.99,4.16l-163.38,94.35c-10.57,6.09-17,17.6-17,29.84v188.35c0,12.23,6.43,23.72,17,29.83l42.67,24.63c20.73,10.22,28.37,10.06,37.81,10.06,30.69,0,48.22-18.62,48.22-50.99v-185.93c0-2.63-2.28-4.51-4.85-4.51h-20.47c-2.62,0-4.85,1.88-4.85,4.51v185.93c0,14.34-14.95,28.77-39.2,16.65l-44.4-26.01c-1.57-.85-2.78-2.36-2.78-4.16v-188.36c0-1.78,1.19-3.6,2.78-4.51l163.03-94c1.5-.88,3.36-.88,4.85,0l163.03,94c1.55.94,2.78,2.67,2.78,4.51v188.35c0,1.8-.91,3.64-2.43,4.51l-163.38,94c-1.4.83-3.33.83-4.85,0l-41.97-24.97c-1.3-.7-2.86-.7-4.16,0-11.59,6.57-13.76,7.33-24.63,11.1-2.68.94-6.74,2.39,1.39,6.94l54.81,32.25c5.17,2.98,11.03,4.54,17,4.51,5.96.04,11.83-1.52,16.99-4.51l163.38-94.01c10.57-6.15,16.99-17.6,16.99-29.83v-188.36c0-12.24-6.42-23.72-16.99-29.83l-163.38-94.35c-5.12-2.93-10.99-4.17-16.99-4.17h0Z"/>
    <path class="cls-1" d="M2327.54,1276.24c-46.52,0-74.23,19.8-74.23,52.73,0,35.71,27.5,45.53,72.15,49.95,53.42,5.23,57.58,13.07,57.58,23.59,0,18.24-14.54,26.01-48.91,26.01-43.18,0-52.67-10.78-55.85-32.26-.38-2.3-2.15-4.17-4.51-4.17h-21.16c-2.6,0-4.85,2.25-4.85,4.86,0,27.49,14.95,60.01,86.37,60.01,51.7,0,81.51-20.29,81.51-55.85s-24.09-44.71-74.23-51.33c-50.67-6.71-55.5-9.99-55.5-21.85,0-9.8,4.1-22.9,41.63-22.9,33.53,0,45.92,7.23,50.99,29.84.44,2.12,2.31,3.81,4.51,3.81h21.16c1.3,0,2.56-.8,3.47-1.74.89-1,1.51-2.12,1.39-3.47-3.28-38.93-29.23-57.24-81.52-57.24h0Z"/>
  </g>
  <path class="cls-2" d="M1323.34,894.67c-1.83,0-3.62.48-5.21,1.38-3.21,1.88-5.18,5.31-5.2,9.02v265.36c0,2.6-1.21,4.94-3.47,6.24-2.25,1.31-5.03,1.31-7.28,0l-43.36-24.97c-6.44-3.72-14.38-3.72-20.81,0l-173.09,99.9c-6.47,3.74-10.4,10.91-10.4,18.39v199.8c0,7.46,3.94,14.3,10.4,18.04l173.09,99.9c6.43,3.73,14.38,3.73,20.81,0l173.09-99.9c6.45-3.71,10.42-10.59,10.41-18.04v-498.11c0-7.62-4.12-14.64-10.75-18.39l-103.03-57.58c-1.62-.9-3.41-1.06-5.2-1.04h0ZM209.86,1144.08c-3.3.13-6.4.71-9.36,2.42l-173.1,99.9c-6.45,3.71-10.43,10.59-10.4,18.04l.35,268.14c0,3.73,1.92,7.19,5.2,9.02,3.2,1.92,7.21,1.92,10.41,0l102.67-58.97c6.5-3.87,10.75-10.59,10.75-18.04v-125.22c0-7.47,3.93-14.33,10.41-18.04l43.7-25.32c3.16-1.84,6.75-2.8,10.41-2.78,3.57,0,7.23.89,10.4,2.78l43.71,25.32c6.46,3.7,10.44,10.59,10.41,18.04v125.22c0,7.45,4.29,14.22,10.75,18.04l102.67,58.97c3.2,1.92,7.21,1.92,10.41,0,3.22-1.86,5.2-5.3,5.21-9.02l.34-268.14c.04-7.45-3.93-14.34-10.4-18.04l-173.09-99.9c-2.93-1.72-6.04-2.29-9.36-2.42h-2.08ZM1765.26,1146.5c-3.62,0-7.16.92-10.4,2.78l-173.09,99.9c-6.45,3.71-10.42,10.59-10.41,18.04v199.8c0,7.52,4.23,14.32,10.75,18.04l171.71,97.82c6.34,3.62,14.08,3.89,20.47.34l104.06-57.93c3.3-1.83,5.53-5.25,5.55-9.02.04-3.73-1.96-7.18-5.2-9.02l-174.13-99.9c-3.26-1.86-5.55-5.63-5.55-9.37v-62.43c0-3.74,2.31-7.16,5.55-9.02l54.11-31.22c3.22-1.86,7.19-1.86,10.41,0l54.11,31.22c3.23,1.85,5.21,5.29,5.21,9.02v49.26c0,3.72,1.98,7.16,5.2,9.02,3.24,1.88,7.17,1.88,10.4,0l103.72-60.35c6.44-3.73,10.41-10.6,10.41-18.04v-48.21c0-7.45-3.95-14.3-10.41-18.04l-172.05-99.9c-3.16-1.83-6.75-2.79-10.41-2.77h0ZM1247.71,1295.66c.91,0,1.97.22,2.78.69l59.32,34.34c1.61.93,2.78,2.65,2.78,4.51v68.68c0,1.87-1.16,3.58-2.78,4.51l-59.32,34.34c-1.61.92-3.59.92-5.2,0l-59.31-34.34c-1.62-.94-2.78-2.65-2.78-4.51v-68.68c0-1.86,1.17-3.57,2.78-4.51l59.31-34.34c.73-.45,1.57-.69,2.43-.69h0s0,0,0,0Z"/>
  <path class="cls-1" d="M729.83,1145.46c-3.61,0-7.17.92-10.4,2.78l-173.09,99.56c-6.47,3.73-10.41,10.92-10.41,18.38v199.8c0,7.47,3.94,14.3,10.41,18.04l173.09,99.9c6.43,3.74,14.38,3.74,20.81,0l173.09-99.9c6.45-3.71,10.42-10.6,10.4-18.04v-199.8c0-7.47-3.93-14.66-10.4-18.38l-173.09-99.56c-3.16-1.83-6.75-2.79-10.41-2.78h0ZM1764.91,1323.76c-.69,0-1.46,0-2.08.35l-33.3,19.42c-1.26.7-2.06,2.03-2.08,3.47v38.15c0,1.44.83,2.75,2.08,3.47l33.3,19.08c1.25.72,2.58.72,3.81,0l33.3-19.08c1.26-.71,2.05-2.02,2.08-3.47v-38.16c-.03-1.44-.82-2.76-2.08-3.47l-33.3-19.43c-.62-.36-1.04-.34-1.74-.34h0Z"/>
</svg>