<?xml version="1.0" encoding="UTF-8"?>
<svg id="Capa_1" data-name="Capa 1" xmlns="http://www.w3.org/2000/svg" viewBox="0 0 1999 2181.86">
  <defs>
    <style>
      .cls-1 {
        fill: #fff;
        font-family: Montserrat-SemiBold, Montserrat;
        font-size: 247.72px;
        font-weight: 600;
      }

      .cls-2 {
        letter-spacing: 0em;
      }

      .cls-3 {
        fill: #61dafb;
        stroke-width: 0px;
      }

      .cls-4 {
        letter-spacing: 0em;
      }
    </style>
  </defs>
  <text class="cls-1" transform="translate(566.66 2116.21)"><tspan x="0" y="0">RE</tspan><tspan class="cls-4" x="347.05" y="0">A</tspan><tspan class="cls-2" x="530.11" y="0">C</tspan><tspan x="708.21" y="0">T</tspan></text>
  <g>
    <path class="cls-3" d="M1999,890.3c0-132.42-165.84-257.92-420.09-335.75,58.67-259.14,32.6-465.32-82.31-531.33-26.48-15.48-57.45-22.82-91.27-22.82v90.86c18.74,0,33.82,3.67,46.45,10.59,55.41,31.78,79.45,152.8,60.71,308.45-4.48,38.3-11.82,78.64-20.78,119.79-79.86-19.56-167.06-34.63-258.74-44.41-55.01-75.38-112.05-143.83-169.5-203.73,132.83-123.46,257.51-191.1,342.27-191.1V0c-112.05,0-258.74,79.86-407.05,218.4C850.37,80.68,703.68,1.63,591.63,1.63v90.86c84.34,0,209.43,67.23,342.27,189.88-57.04,59.9-114.09,127.94-168.28,203.32-92.09,9.78-179.28,24.86-259.14,44.82-9.37-40.75-16.3-80.27-21.19-118.16-19.15-155.65,4.48-276.67,59.49-308.85,12.22-7.33,28.11-10.59,46.86-10.59V2.04c-34.23,0-65.19,7.33-92.09,22.82-114.5,66.01-140.17,271.78-81.08,530.11C165.02,633.19,0,758.28,0,890.3s165.84,257.92,420.09,335.75c-58.67,259.14-32.6,465.32,82.31,531.33,26.48,15.48,57.45,22.82,91.68,22.82,112.05,0,258.74-79.86,407.05-218.4,148.32,137.72,295,216.77,407.05,216.77,34.23,0,65.19-7.33,92.09-22.82,114.5-66.01,140.17-271.78,81.08-530.11,252.63-77.82,417.65-203.32,417.65-335.34h0ZM1468.49,618.52c-15.08,52.56-33.82,106.75-55.01,160.95-16.71-32.6-34.23-65.19-53.38-97.79-18.74-32.6-38.71-64.38-58.67-95.35,57.86,8.56,113.68,19.15,167.06,32.19h0ZM1281.87,1052.47c-31.78,55.01-64.38,107.16-98.2,155.65-60.71,5.3-122.24,8.15-184.17,8.15s-123.05-2.85-183.36-7.74c-33.82-48.49-66.82-100.24-98.61-154.83-30.97-53.38-59.08-107.57-84.75-162.17,25.26-54.6,53.78-109.2,84.34-162.58,31.78-55.01,64.38-107.16,98.2-155.65,60.71-5.3,122.24-8.15,184.17-8.15s123.05,2.85,183.36,7.74c33.82,48.49,66.82,100.24,98.61,154.83,30.97,53.38,59.08,107.57,84.75,162.17-25.67,54.6-53.78,109.2-84.34,162.58h0ZM1413.48,999.5c22,54.6,40.75,109.2,56.23,162.17-53.38,13.04-109.61,24.04-167.87,32.6,19.97-31.37,39.93-63.56,58.67-96.57,18.74-32.6,36.26-65.6,52.97-98.2h0ZM1000.31,1434.26c-37.89-39.12-75.79-82.71-113.27-130.39,36.67,1.63,74.16,2.85,112.05,2.85s76.2-.81,113.27-2.85c-36.67,47.67-74.57,91.27-112.05,130.39ZM697.16,1194.27c-57.86-8.56-113.68-19.15-167.06-32.19,15.08-52.56,33.82-106.75,55.01-160.95,16.71,32.6,34.23,65.19,53.38,97.79,19.15,32.6,38.71,64.38,58.67,95.35ZM998.28,346.34c37.89,39.12,75.79,82.71,113.27,130.39-36.67-1.63-74.16-2.85-112.05-2.85s-76.2.81-113.27,2.85c36.67-47.67,74.57-91.27,112.05-130.39ZM696.76,586.34c-19.97,31.37-39.93,63.56-58.67,96.57-18.74,32.6-36.26,65.19-52.97,97.79-22-54.6-40.75-109.2-56.23-162.17,53.38-12.63,109.61-23.63,167.87-32.19h0ZM328.01,1096.48c-144.24-61.53-237.55-142.2-237.55-206.17s93.31-145.06,237.55-206.17c35.04-15.08,73.34-28.52,112.87-41.15,23.23,79.86,53.78,162.98,91.68,248.14-37.49,84.75-67.64,167.47-90.46,246.92-40.34-12.63-78.64-26.48-114.09-41.56h0ZM547.22,1678.74c-55.41-31.78-79.45-152.8-60.71-308.45,4.48-38.3,11.82-78.64,20.78-119.79,79.86,19.56,167.06,34.63,258.74,44.41,55.01,75.38,112.05,143.83,169.5,203.73-132.83,123.46-257.51,191.1-342.27,191.1-18.34-.41-33.82-4.07-46.04-11h0ZM1513.71,1368.25c19.15,155.65-4.48,276.67-59.49,308.85-12.22,7.33-28.11,10.59-46.86,10.59-84.34,0-209.43-67.23-342.27-189.88,57.04-59.9,114.09-127.94,168.28-203.32,92.09-9.78,179.28-24.86,259.14-44.82,9.37,41.15,16.71,80.68,21.19,118.57ZM1670.59,1096.48c-35.04,15.08-73.34,28.52-112.87,41.15-23.23-79.86-53.78-162.98-91.68-248.14,37.49-84.75,67.64-167.47,90.46-246.92,40.34,12.63,78.64,26.48,114.5,41.56,144.24,61.53,237.55,142.2,237.55,206.17-.41,63.97-93.72,145.06-237.96,206.17h0Z"/>
    <circle class="cls-3" cx="999.09" cy="890.3" r="186.21"/>
  </g>
</svg>