<?xml version="1.0" encoding="UTF-8"?>
<svg id="Capa_1" data-name="Capa 1" xmlns="http://www.w3.org/2000/svg" viewBox="0 0 2500 2500">
  <defs>
    <style>
      .cls-1 {
        font-family: Montserrat-SemiBold, Montserrat;
        font-size: 247.72px;
        font-weight: 600;
      }

      .cls-1, .cls-2 {
        fill: #fff;
      }

      .cls-3 {
        fill: #007acc;
      }

      .cls-3, .cls-2 {
        stroke-width: 0px;
      }

      .cls-4 {
        letter-spacing: 0em;
      }

      .cls-5 {
        letter-spacing: -.03em;
      }
    </style>
  </defs>
  <text class="cls-1" transform="translate(464.66 2321.94)"><tspan class="cls-4" x="0" y="0">TYP</tspan><tspan x="485.28" y="0">ESCRI</tspan><tspan class="cls-5" x="1247.24" y="0">P</tspan><tspan x="1419.65" y="0">T</tspan></text>
  <path class="cls-3" d="M362.79,1082.04V191.43h1781.21v1781.21H362.79"/>
  <path class="cls-2" d="M753.32,1085.16v72.58h231.56v659.05h164.32v-659.05h231.56v-71.25c0-40.08,0-72.58-1.78-73.48,0-1.34-141.16-1.78-312.6-1.78l-311.71,1.34v73.03l-1.34-.45h0ZM1793.99,1010.79c45.42,10.69,80.15,31.17,111.33,63.68,16.48,17.81,40.97,48.98,42.75,57,0,2.67-77.04,54.77-123.79,83.72-1.78,1.34-8.91-6.23-16.03-17.81-23.16-32.95-46.76-47.2-83.72-49.87-53.44-3.56-89.06,24.49-89.06,71.25,0,14.25,2.67,22.27,8.02,33.84,12.02,24.49,34.29,39.19,103.31,69.47,127.36,54.77,182.57,90.84,215.97,142.5,37.85,57.89,46.31,148.73,20.93,216.86-28.5,74.37-97.97,124.68-197.27,141.16-31.17,5.34-102.42,4.45-135.82-1.34-71.25-13.36-139.38-48.98-181.24-94.85-16.48-17.81-48.09-65.46-46.31-68.58l16.92-10.69,66.8-38.74,50.32-29.39,11.58,15.59c14.69,23.16,47.65,54.33,66.8,65.01,57.89,29.84,135.37,25.83,173.67-8.91,16.48-15.14,23.6-31.17,23.6-53.44,0-20.48-3.12-29.84-13.36-45.42-14.25-19.59-42.75-35.62-122.9-71.25-92.18-39.19-131.36-64.12-167.88-102.42-20.93-23.16-40.08-59.23-48.98-89.06-6.68-25.83-8.91-89.06-2.67-114.44,19.15-89.06,86.39-151.4,182.57-169.22,31.17-6.23,104.65-3.56,135.37,4.45l-.89.89h0Z"/>
</svg>